<svg width="89" height="46" viewBox="0 0 89 46" fill="none" xmlns="http://www.w3.org/2000/svg">
<path d="M22.6194 0.9375V18H18.5061V0.9375H22.6194ZM29.2522 8.03906V11.2031H21.4475V8.03906H29.2522ZM29.9201 0.9375V4.11328H21.4475V0.9375H29.9201ZM30.6936 11.7891V11.543C30.6936 10.6133 30.8264 9.75781 31.092 8.97656C31.3576 8.1875 31.7483 7.50391 32.2639 6.92578C32.7795 6.34766 33.4162 5.89844 34.174 5.57812C34.9319 5.25 35.8069 5.08594 36.799 5.08594C37.799 5.08594 38.678 5.25 39.4358 5.57812C40.2014 5.89844 40.842 6.34766 41.3576 6.92578C41.8733 7.50391 42.2639 8.1875 42.5295 8.97656C42.7951 9.75781 42.928 10.6133 42.928 11.543V11.7891C42.928 12.7109 42.7951 13.5664 42.5295 14.3555C42.2639 15.1367 41.8733 15.8203 41.3576 16.4062C40.842 16.9844 40.2053 17.4336 39.4475 17.7539C38.6897 18.0742 37.8147 18.2344 36.8225 18.2344C35.8303 18.2344 34.9514 18.0742 34.1858 17.7539C33.4201 17.4336 32.7795 16.9844 32.2639 16.4062C31.7483 15.8203 31.3576 15.1367 31.092 14.3555C30.8264 13.5664 30.6936 12.7109 30.6936 11.7891ZM34.6428 11.543V11.7891C34.6428 12.2656 34.678 12.7109 34.7483 13.125C34.8186 13.5391 34.9358 13.9023 35.0998 14.2148C35.2639 14.5195 35.4865 14.7578 35.7678 14.9297C36.049 15.1016 36.4006 15.1875 36.8225 15.1875C37.2365 15.1875 37.5803 15.1016 37.8537 14.9297C38.135 14.7578 38.3576 14.5195 38.5217 14.2148C38.6858 13.9023 38.803 13.5391 38.8733 13.125C38.9436 12.7109 38.9787 12.2656 38.9787 11.7891V11.543C38.9787 11.082 38.9436 10.6484 38.8733 10.2422C38.803 9.82812 38.6858 9.46484 38.5217 9.15234C38.3576 8.83203 38.135 8.58203 37.8537 8.40234C37.5725 8.22266 37.2209 8.13281 36.799 8.13281C36.385 8.13281 36.0373 8.22266 35.7561 8.40234C35.4826 8.58203 35.2639 8.83203 35.0998 9.15234C34.9358 9.46484 34.8186 9.82812 34.7483 10.2422C34.678 10.6484 34.6428 11.082 34.6428 11.543ZM44.1936 11.7891V11.543C44.1936 10.6133 44.3264 9.75781 44.592 8.97656C44.8576 8.1875 45.2483 7.50391 45.7639 6.92578C46.2795 6.34766 46.9162 5.89844 47.674 5.57812C48.4319 5.25 49.3069 5.08594 50.299 5.08594C51.299 5.08594 52.178 5.25 52.9358 5.57812C53.7014 5.89844 54.342 6.34766 54.8576 6.92578C55.3733 7.50391 55.7639 8.1875 56.0295 8.97656C56.2951 9.75781 56.428 10.6133 56.428 11.543V11.7891C56.428 12.7109 56.2951 13.5664 56.0295 14.3555C55.7639 15.1367 55.3733 15.8203 54.8576 16.4062C54.342 16.9844 53.7053 17.4336 52.9475 17.7539C52.1897 18.0742 51.3147 18.2344 50.3225 18.2344C49.3303 18.2344 48.4514 18.0742 47.6858 17.7539C46.9201 17.4336 46.2795 16.9844 45.7639 16.4062C45.2483 15.8203 44.8576 15.1367 44.592 14.3555C44.3264 13.5664 44.1936 12.7109 44.1936 11.7891ZM48.1428 11.543V11.7891C48.1428 12.2656 48.178 12.7109 48.2483 13.125C48.3186 13.5391 48.4358 13.9023 48.5998 14.2148C48.7639 14.5195 48.9865 14.7578 49.2678 14.9297C49.549 15.1016 49.9006 15.1875 50.3225 15.1875C50.7365 15.1875 51.0803 15.1016 51.3537 14.9297C51.635 14.7578 51.8576 14.5195 52.0217 14.2148C52.1858 13.9023 52.303 13.5391 52.3733 13.125C52.4436 12.7109 52.4787 12.2656 52.4787 11.7891V11.543C52.4787 11.082 52.4436 10.6484 52.3733 10.2422C52.303 9.82812 52.1858 9.46484 52.0217 9.15234C51.8576 8.83203 51.635 8.58203 51.3537 8.40234C51.0725 8.22266 50.7209 8.13281 50.299 8.13281C49.885 8.13281 49.5373 8.22266 49.2561 8.40234C48.9826 8.58203 48.7639 8.83203 48.5998 9.15234C48.4358 9.46484 48.3186 9.82812 48.2483 10.2422C48.178 10.6484 48.1428 11.082 48.1428 11.543ZM65.4748 15.0938V0H69.4475V18H65.885L65.4748 15.0938ZM57.6936 11.8125V11.5664C57.6936 10.6055 57.799 9.73047 58.01 8.94141C58.2209 8.14453 58.5334 7.46094 58.9475 6.89062C59.3615 6.3125 59.8772 5.86719 60.4944 5.55469C61.1115 5.24219 61.8225 5.08594 62.6272 5.08594C63.3459 5.08594 63.9748 5.25391 64.5139 5.58984C65.053 5.91797 65.5139 6.37891 65.8967 6.97266C66.2795 7.56641 66.592 8.26172 66.8342 9.05859C67.0764 9.84766 67.26 10.6992 67.385 11.6133V11.9062C67.26 12.7656 67.0764 13.5781 66.8342 14.3438C66.592 15.1016 66.2795 15.7734 65.8967 16.3594C65.5139 16.9453 65.049 17.4062 64.5022 17.7422C63.9631 18.0703 63.3303 18.2344 62.6037 18.2344C61.799 18.2344 61.0881 18.0742 60.4709 17.7539C59.8615 17.4336 59.3498 16.9844 58.9358 16.4062C58.5295 15.8281 58.2209 15.1484 58.01 14.3672C57.799 13.5859 57.6936 12.7344 57.6936 11.8125ZM61.6428 11.5664V11.8125C61.6428 12.2891 61.674 12.7305 61.7365 13.1367C61.799 13.543 61.9045 13.9023 62.053 14.2148C62.2092 14.5195 62.4123 14.7578 62.6623 14.9297C62.9201 15.1016 63.2365 15.1875 63.6115 15.1875C64.1194 15.1875 64.5373 15.0664 64.8655 14.8242C65.2014 14.582 65.4475 14.2383 65.6037 13.793C65.7678 13.3477 65.8381 12.8242 65.8147 12.2227V11.2969C65.8303 10.7812 65.7951 10.3281 65.7092 9.9375C65.6233 9.53906 65.4865 9.20703 65.299 8.94141C65.1194 8.67578 64.8889 8.47656 64.6076 8.34375C64.3342 8.20312 64.01 8.13281 63.635 8.13281C63.2678 8.13281 62.9553 8.21875 62.6975 8.39062C62.4475 8.5625 62.2444 8.80469 62.0881 9.11719C61.9319 9.42188 61.8186 9.78516 61.7483 10.207C61.678 10.6211 61.6428 11.0742 61.6428 11.5664ZM6.28342 40H2.49826L2.5217 36.8359H6.28342C7.06467 36.8359 7.72483 36.6484 8.26389 36.2734C8.81076 35.8984 9.22483 35.3398 9.50608 34.5977C9.79514 33.8477 9.93967 32.9258 9.93967 31.832V31.0938C9.93967 30.2734 9.85764 29.5547 9.69358 28.9375C9.53733 28.3125 9.30295 27.793 8.99045 27.3789C8.67795 26.957 8.28733 26.6406 7.81858 26.4297C7.35764 26.2188 6.82639 26.1133 6.22483 26.1133H2.42795V22.9375H6.22483C7.38108 22.9375 8.43967 23.1367 9.40061 23.5352C10.3694 23.9258 11.2053 24.4883 11.9084 25.2227C12.6194 25.9492 13.1662 26.8125 13.549 27.8125C13.9397 28.8047 14.135 29.9062 14.135 31.1172V31.832C14.135 33.0352 13.9397 34.1367 13.549 35.1367C13.1662 36.1367 12.6233 37 11.9201 37.7266C11.217 38.4531 10.385 39.0156 9.42405 39.4141C8.47092 39.8047 7.42405 40 6.28342 40ZM4.85373 22.9375V40H0.740452V22.9375H4.85373ZM22.2326 40.2344C21.2014 40.2344 20.2795 40.0742 19.467 39.7539C18.6545 39.4258 17.967 38.9766 17.4045 38.4062C16.8498 37.8359 16.424 37.1797 16.1272 36.4375C15.8381 35.6953 15.6936 34.9102 15.6936 34.082V33.6367C15.6936 32.707 15.8225 31.8477 16.0803 31.0586C16.3381 30.2617 16.7209 29.5664 17.2287 28.9727C17.7365 28.3789 18.3733 27.918 19.1389 27.5898C19.9045 27.2539 20.7951 27.0859 21.8108 27.0859C22.7092 27.0859 23.5139 27.2305 24.2248 27.5195C24.9358 27.8086 25.5373 28.2227 26.0295 28.7617C26.5295 29.3008 26.9084 29.9531 27.1662 30.7188C27.4319 31.4844 27.5647 32.3438 27.5647 33.2969V34.9023H17.2053V32.4297H23.7092V32.125C23.717 31.7031 23.6428 31.3438 23.4865 31.0469C23.3381 30.75 23.1194 30.5234 22.8303 30.3672C22.5412 30.2109 22.1897 30.1328 21.7756 30.1328C21.3459 30.1328 20.9905 30.2266 20.7092 30.4141C20.4358 30.6016 20.2209 30.8594 20.0647 31.1875C19.9162 31.5078 19.8108 31.8789 19.7483 32.3008C19.6858 32.7227 19.6545 33.168 19.6545 33.6367V34.082C19.6545 34.5508 19.717 34.9766 19.842 35.3594C19.9748 35.7422 20.1623 36.0703 20.4045 36.3438C20.6545 36.6094 20.9514 36.8164 21.2951 36.9648C21.6467 37.1133 22.0451 37.1875 22.4905 37.1875C23.0295 37.1875 23.5608 37.0859 24.0842 36.8828C24.6076 36.6797 25.0569 36.3438 25.4319 35.875L27.2248 38.0078C26.967 38.375 26.5998 38.7305 26.1233 39.0742C25.6545 39.418 25.092 39.6992 24.4358 39.918C23.7795 40.1289 23.0451 40.2344 22.2326 40.2344ZM33.342 22V40H29.3811V22H33.342ZM39.9514 27.3203V40H35.9905V27.3203H39.9514ZM35.7561 24.0508C35.7561 23.4883 35.9592 23.0273 36.3655 22.668C36.7717 22.3086 37.299 22.1289 37.9475 22.1289C38.5959 22.1289 39.1233 22.3086 39.5295 22.668C39.9358 23.0273 40.1389 23.4883 40.1389 24.0508C40.1389 24.6133 39.9358 25.0742 39.5295 25.4336C39.1233 25.793 38.5959 25.9727 37.9475 25.9727C37.299 25.9727 36.7717 25.793 36.3655 25.4336C35.9592 25.0742 35.7561 24.6133 35.7561 24.0508ZM46.9592 37.293L49.4553 27.3203H53.6155L49.467 40H47.0061L46.9592 37.293ZM45.4826 27.3203L47.9436 37.293L47.9201 40H45.4475L41.3108 27.3203H45.4826ZM60.7639 40.2344C59.7326 40.2344 58.8108 40.0742 57.9983 39.7539C57.1858 39.4258 56.4983 38.9766 55.9358 38.4062C55.3811 37.8359 54.9553 37.1797 54.6584 36.4375C54.3694 35.6953 54.2248 34.9102 54.2248 34.082V33.6367C54.2248 32.707 54.3537 31.8477 54.6115 31.0586C54.8694 30.2617 55.2522 29.5664 55.76 28.9727C56.2678 28.3789 56.9045 27.918 57.6701 27.5898C58.4358 27.2539 59.3264 27.0859 60.342 27.0859C61.2405 27.0859 62.0451 27.2305 62.7561 27.5195C63.467 27.8086 64.0686 28.2227 64.5608 28.7617C65.0608 29.3008 65.4397 29.9531 65.6975 30.7188C65.9631 31.4844 66.0959 32.3438 66.0959 33.2969V34.9023H55.7365V32.4297H62.2405V32.125C62.2483 31.7031 62.174 31.3438 62.0178 31.0469C61.8694 30.75 61.6506 30.5234 61.3615 30.3672C61.0725 30.2109 60.7209 30.1328 60.3069 30.1328C59.8772 30.1328 59.5217 30.2266 59.2405 30.4141C58.967 30.6016 58.7522 30.8594 58.5959 31.1875C58.4475 31.5078 58.342 31.8789 58.2795 32.3008C58.217 32.7227 58.1858 33.168 58.1858 33.6367V34.082C58.1858 34.5508 58.2483 34.9766 58.3733 35.3594C58.5061 35.7422 58.6936 36.0703 58.9358 36.3438C59.1858 36.6094 59.4826 36.8164 59.8264 36.9648C60.178 37.1133 60.5764 37.1875 61.0217 37.1875C61.5608 37.1875 62.092 37.0859 62.6155 36.8828C63.1389 36.6797 63.5881 36.3438 63.9631 35.875L65.7561 38.0078C65.4983 38.375 65.1311 38.7305 64.6545 39.0742C64.1858 39.418 63.6233 39.6992 62.967 39.918C62.3108 40.1289 61.5764 40.2344 60.7639 40.2344ZM71.6858 30.4609V40H67.7365V27.3203H71.4279L71.6858 30.4609ZM75.4358 27.2266L75.3654 30.8945C75.2092 30.8789 74.9983 30.8594 74.7326 30.8359C74.467 30.8125 74.2444 30.8008 74.0647 30.8008C73.6037 30.8008 73.2053 30.8555 72.8694 30.9648C72.5412 31.0664 72.2678 31.2227 72.049 31.4336C71.8381 31.6367 71.6819 31.8945 71.5803 32.207C71.4865 32.5195 71.4436 32.8828 71.4514 33.2969L70.7365 32.8281C70.7365 31.9766 70.8186 31.2031 70.9826 30.5078C71.1545 29.8047 71.3967 29.1992 71.7092 28.6914C72.0217 28.1758 72.4006 27.7812 72.8459 27.5078C73.2912 27.2266 73.7912 27.0859 74.3459 27.0859C74.5412 27.0859 74.7326 27.0977 74.9201 27.1211C75.1154 27.1445 75.2873 27.1797 75.4358 27.2266ZM80.8967 38.5117L84.1779 27.3203H88.4201L83.3225 41.8867C83.2131 42.207 83.0686 42.5508 82.8889 42.918C82.7092 43.293 82.4631 43.6484 82.1506 43.9844C81.8381 44.3203 81.4358 44.5938 80.9436 44.8047C80.4592 45.0156 79.8576 45.1211 79.1389 45.1211C78.7561 45.1211 78.4748 45.1016 78.2951 45.0625C78.1233 45.0312 77.8576 44.9727 77.4983 44.8867V42.0625C77.5998 42.0625 77.6858 42.0625 77.7561 42.0625C77.8342 42.0625 77.9201 42.0625 78.0139 42.0625C78.4358 42.0625 78.7717 42.0195 79.0217 41.9336C79.2795 41.8477 79.4748 41.7227 79.6076 41.5586C79.7483 41.3945 79.8576 41.1953 79.9358 40.9609L80.8967 38.5117ZM80.0647 27.3203L82.5608 36.1914L82.9944 40.375H80.3459L75.8342 27.3203H80.0647Z" fill="#E84242"/>
</svg>
