<svg width="132" height="19" viewBox="0 0 132 19" fill="none" xmlns="http://www.w3.org/2000/svg">
<path d="M11.5742 14.8359V18H2.94922V14.8359H11.5742ZM4.41406 0.9375V18H0.300781V0.9375H4.41406ZM19.2617 18.2344C18.2305 18.2344 17.3086 18.0742 16.4961 17.7539C15.6836 17.4258 14.9961 16.9766 14.4336 16.4062C13.8789 15.8359 13.4531 15.1797 13.1562 14.4375C12.8672 13.6953 12.7227 12.9102 12.7227 12.082V11.6367C12.7227 10.707 12.8516 9.84766 13.1094 9.05859C13.3672 8.26172 13.75 7.56641 14.2578 6.97266C14.7656 6.37891 15.4023 5.91797 16.168 5.58984C16.9336 5.25391 17.8242 5.08594 18.8398 5.08594C19.7383 5.08594 20.543 5.23047 21.2539 5.51953C21.9648 5.80859 22.5664 6.22266 23.0586 6.76172C23.5586 7.30078 23.9375 7.95312 24.1953 8.71875C24.4609 9.48438 24.5938 10.3438 24.5938 11.2969V12.9023H14.2344V10.4297H20.7383V10.125C20.7461 9.70312 20.6719 9.34375 20.5156 9.04688C20.3672 8.75 20.1484 8.52344 19.8594 8.36719C19.5703 8.21094 19.2188 8.13281 18.8047 8.13281C18.375 8.13281 18.0195 8.22656 17.7383 8.41406C17.4648 8.60156 17.25 8.85938 17.0938 9.1875C16.9453 9.50781 16.8398 9.87891 16.7773 10.3008C16.7148 10.7227 16.6836 11.168 16.6836 11.6367V12.082C16.6836 12.5508 16.7461 12.9766 16.8711 13.3594C17.0039 13.7422 17.1914 14.0703 17.4336 14.3438C17.6836 14.6094 17.9805 14.8164 18.3242 14.9648C18.6758 15.1133 19.0742 15.1875 19.5195 15.1875C20.0586 15.1875 20.5898 15.0859 21.1133 14.8828C21.6367 14.6797 22.0859 14.3438 22.4609 13.875L24.2539 16.0078C23.9961 16.375 23.6289 16.7305 23.1523 17.0742C22.6836 17.418 22.1211 17.6992 21.4648 17.918C20.8086 18.1289 20.0742 18.2344 19.2617 18.2344ZM32.8438 14.4375C32.8438 14.2188 32.7695 14.0312 32.6211 13.875C32.4805 13.7109 32.2305 13.5625 31.8711 13.4297C31.5117 13.2891 31.0078 13.1484 30.3594 13.0078C29.7422 12.875 29.1602 12.6992 28.6133 12.4805C28.0742 12.2617 27.6016 11.9961 27.1953 11.6836C26.7891 11.3711 26.4688 11 26.2344 10.5703C26.0078 10.1406 25.8945 9.64844 25.8945 9.09375C25.8945 8.55469 26.0078 8.04688 26.2344 7.57031C26.4688 7.08594 26.8086 6.66016 27.2539 6.29297C27.707 5.91797 28.2578 5.625 28.9062 5.41406C29.5547 5.19531 30.293 5.08594 31.1211 5.08594C32.2617 5.08594 33.2461 5.26172 34.0742 5.61328C34.9023 5.95703 35.5391 6.44141 35.9844 7.06641C36.4375 7.68359 36.6641 8.39844 36.6641 9.21094H32.7148C32.7148 8.89062 32.6602 8.61719 32.5508 8.39062C32.4492 8.16406 32.2812 7.99219 32.0469 7.875C31.8125 7.75 31.5 7.6875 31.1094 7.6875C30.8359 7.6875 30.5859 7.73828 30.3594 7.83984C30.1406 7.94141 29.9648 8.08203 29.832 8.26172C29.6992 8.44141 29.6328 8.65234 29.6328 8.89453C29.6328 9.06641 29.6719 9.22266 29.75 9.36328C29.8359 9.49609 29.9648 9.62109 30.1367 9.73828C30.3086 9.84766 30.5273 9.94922 30.793 10.043C31.0586 10.1289 31.3789 10.207 31.7539 10.2773C32.6055 10.4336 33.4023 10.6562 34.1445 10.9453C34.8867 11.2344 35.4883 11.6445 35.9492 12.1758C36.418 12.707 36.6523 13.4219 36.6523 14.3203C36.6523 14.8828 36.5234 15.4023 36.2656 15.8789C36.0078 16.3477 35.6367 16.7617 35.1523 17.1211C34.668 17.4727 34.0859 17.7461 33.4062 17.9414C32.7266 18.1367 31.9609 18.2344 31.1094 18.2344C29.8984 18.2344 28.875 18.0195 28.0391 17.5898C27.2031 17.1523 26.5703 16.6055 26.1406 15.9492C25.7188 15.2852 25.5078 14.6133 25.5078 13.9336H29.1875C29.2031 14.3242 29.2969 14.6445 29.4688 14.8945C29.6484 15.1445 29.8867 15.3281 30.1836 15.4453C30.4805 15.5625 30.8242 15.6211 31.2148 15.6211C31.5742 15.6211 31.8711 15.5703 32.1055 15.4688C32.3477 15.3672 32.5312 15.2305 32.6562 15.0586C32.7812 14.8789 32.8438 14.6719 32.8438 14.4375ZM45.1484 14.4375C45.1484 14.2188 45.0742 14.0312 44.9258 13.875C44.7852 13.7109 44.5352 13.5625 44.1758 13.4297C43.8164 13.2891 43.3125 13.1484 42.6641 13.0078C42.0469 12.875 41.4648 12.6992 40.918 12.4805C40.3789 12.2617 39.9062 11.9961 39.5 11.6836C39.0938 11.3711 38.7734 11 38.5391 10.5703C38.3125 10.1406 38.1992 9.64844 38.1992 9.09375C38.1992 8.55469 38.3125 8.04688 38.5391 7.57031C38.7734 7.08594 39.1133 6.66016 39.5586 6.29297C40.0117 5.91797 40.5625 5.625 41.2109 5.41406C41.8594 5.19531 42.5977 5.08594 43.4258 5.08594C44.5664 5.08594 45.5508 5.26172 46.3789 5.61328C47.207 5.95703 47.8438 6.44141 48.2891 7.06641C48.7422 7.68359 48.9688 8.39844 48.9688 9.21094H45.0195C45.0195 8.89062 44.9648 8.61719 44.8555 8.39062C44.7539 8.16406 44.5859 7.99219 44.3516 7.875C44.1172 7.75 43.8047 7.6875 43.4141 7.6875C43.1406 7.6875 42.8906 7.73828 42.6641 7.83984C42.4453 7.94141 42.2695 8.08203 42.1367 8.26172C42.0039 8.44141 41.9375 8.65234 41.9375 8.89453C41.9375 9.06641 41.9766 9.22266 42.0547 9.36328C42.1406 9.49609 42.2695 9.62109 42.4414 9.73828C42.6133 9.84766 42.832 9.94922 43.0977 10.043C43.3633 10.1289 43.6836 10.207 44.0586 10.2773C44.9102 10.4336 45.707 10.6562 46.4492 10.9453C47.1914 11.2344 47.793 11.6445 48.2539 12.1758C48.7227 12.707 48.957 13.4219 48.957 14.3203C48.957 14.8828 48.8281 15.4023 48.5703 15.8789C48.3125 16.3477 47.9414 16.7617 47.457 17.1211C46.9727 17.4727 46.3906 17.7461 45.7109 17.9414C45.0312 18.1367 44.2656 18.2344 43.4141 18.2344C42.2031 18.2344 41.1797 18.0195 40.3438 17.5898C39.5078 17.1523 38.875 16.6055 38.4453 15.9492C38.0234 15.2852 37.8125 14.6133 37.8125 13.9336H41.4922C41.5078 14.3242 41.6016 14.6445 41.7734 14.8945C41.9531 15.1445 42.1914 15.3281 42.4883 15.4453C42.7852 15.5625 43.1289 15.6211 43.5195 15.6211C43.8789 15.6211 44.1758 15.5703 44.4102 15.4688C44.6523 15.3672 44.8359 15.2305 44.9609 15.0586C45.0859 14.8789 45.1484 14.6719 45.1484 14.4375ZM54.9336 16.4531L58.332 0.9375H60.3594L61.4609 2.26172L57.8398 18H55.6016L54.9336 16.4531ZM54.0312 0.9375L56.9023 16.5703L56.1641 18H53.5742L49.9531 0.9375H54.0312ZM63.3242 16.4883L66.1719 0.9375H70.2383L66.6172 18H64.0391L63.3242 16.4883ZM61.8242 0.9375L65.3047 16.5469L64.6016 18H62.3633L58.6602 2.23828L59.8086 0.9375H61.8242ZM77.8555 14.8125V9.58594C77.8555 9.22656 77.8047 8.91797 77.7031 8.66016C77.6016 8.40234 77.4414 8.20312 77.2227 8.0625C77.0039 7.91406 76.7109 7.83984 76.3438 7.83984C76.0469 7.83984 75.793 7.89062 75.582 7.99219C75.3711 8.09375 75.2109 8.24609 75.1016 8.44922C74.9922 8.65234 74.9375 8.91016 74.9375 9.22266H70.9883C70.9883 8.63672 71.1172 8.09375 71.375 7.59375C71.6406 7.08594 72.0156 6.64453 72.5 6.26953C72.9922 5.89453 73.5781 5.60547 74.2578 5.40234C74.9453 5.19141 75.7109 5.08594 76.5547 5.08594C77.5625 5.08594 78.4609 5.25391 79.25 5.58984C80.0469 5.92578 80.6758 6.42969 81.1367 7.10156C81.5977 7.76562 81.8281 8.60156 81.8281 9.60938V14.8008C81.8281 15.6289 81.875 16.2578 81.9688 16.6875C82.0625 17.1094 82.1953 17.4805 82.3672 17.8008V18H78.4062C78.2188 17.6094 78.0781 17.1328 77.9844 16.5703C77.8984 16 77.8555 15.4141 77.8555 14.8125ZM78.3359 10.2539L78.3594 12.3633H76.6133C76.2461 12.3633 75.9336 12.4141 75.6758 12.5156C75.4258 12.6172 75.2227 12.7578 75.0664 12.9375C74.918 13.1094 74.8086 13.3047 74.7383 13.5234C74.6758 13.7422 74.6445 13.9727 74.6445 14.2148C74.6445 14.4492 74.6992 14.6602 74.8086 14.8477C74.9258 15.0273 75.082 15.168 75.2773 15.2695C75.4727 15.3711 75.6914 15.4219 75.9336 15.4219C76.3711 15.4219 76.7422 15.3398 77.0469 15.1758C77.3594 15.0039 77.5977 14.7969 77.7617 14.5547C77.9258 14.3125 78.0078 14.0859 78.0078 13.875L78.875 15.4922C78.7188 15.8047 78.5391 16.1211 78.3359 16.4414C78.1406 16.7617 77.8945 17.0586 77.5977 17.332C77.3086 17.5977 76.9531 17.8164 76.5312 17.9883C76.1094 18.1523 75.5977 18.2344 74.9961 18.2344C74.2148 18.2344 73.4961 18.0742 72.8398 17.7539C72.1914 17.4336 71.6719 16.9883 71.2812 16.418C70.8906 15.8398 70.6953 15.1758 70.6953 14.4258C70.6953 13.7695 70.8125 13.1836 71.0469 12.668C71.2891 12.1523 71.6523 11.7148 72.1367 11.3555C72.6211 10.9961 73.2383 10.7227 73.9883 10.5352C74.7383 10.3477 75.6211 10.2539 76.6367 10.2539H78.3359ZM88.1914 5.32031V18H84.2305V5.32031H88.1914ZM83.9961 2.05078C83.9961 1.48828 84.1992 1.02734 84.6055 0.667969C85.0117 0.308594 85.5391 0.128906 86.1875 0.128906C86.8359 0.128906 87.3633 0.308594 87.7695 0.667969C88.1758 1.02734 88.3789 1.48828 88.3789 2.05078C88.3789 2.61328 88.1758 3.07422 87.7695 3.43359C87.3633 3.79297 86.8359 3.97266 86.1875 3.97266C85.5391 3.97266 85.0117 3.79297 84.6055 3.43359C84.1992 3.07422 83.9961 2.61328 83.9961 2.05078ZM97.3086 5.32031V8.0625H89.668V5.32031H97.3086ZM91.2734 2.16797H95.2227V13.8633C95.2227 14.1992 95.2617 14.4609 95.3398 14.6484C95.418 14.8281 95.5508 14.957 95.7383 15.0352C95.9336 15.1055 96.1914 15.1406 96.5117 15.1406C96.7383 15.1406 96.9258 15.1367 97.0742 15.1289C97.2227 15.1133 97.3633 15.0938 97.4961 15.0703V17.8945C97.1602 18.0039 96.8086 18.0859 96.4414 18.1406C96.0742 18.2031 95.6836 18.2344 95.2695 18.2344C94.4258 18.2344 93.7031 18.1016 93.1016 17.8359C92.5078 17.5703 92.0547 17.1523 91.7422 16.582C91.4297 16.0117 91.2734 15.2695 91.2734 14.3555V2.16797ZM105.02 18.2344C103.988 18.2344 103.066 18.0742 102.254 17.7539C101.441 17.4258 100.754 16.9766 100.191 16.4062C99.6367 15.8359 99.2109 15.1797 98.9141 14.4375C98.625 13.6953 98.4805 12.9102 98.4805 12.082V11.6367C98.4805 10.707 98.6094 9.84766 98.8672 9.05859C99.125 8.26172 99.5078 7.56641 100.016 6.97266C100.523 6.37891 101.16 5.91797 101.926 5.58984C102.691 5.25391 103.582 5.08594 104.598 5.08594C105.496 5.08594 106.301 5.23047 107.012 5.51953C107.723 5.80859 108.324 6.22266 108.816 6.76172C109.316 7.30078 109.695 7.95312 109.953 8.71875C110.219 9.48438 110.352 10.3438 110.352 11.2969V12.9023H99.9922V10.4297H106.496V10.125C106.504 9.70312 106.43 9.34375 106.273 9.04688C106.125 8.75 105.906 8.52344 105.617 8.36719C105.328 8.21094 104.977 8.13281 104.562 8.13281C104.133 8.13281 103.777 8.22656 103.496 8.41406C103.223 8.60156 103.008 8.85938 102.852 9.1875C102.703 9.50781 102.598 9.87891 102.535 10.3008C102.473 10.7227 102.441 11.168 102.441 11.6367V12.082C102.441 12.5508 102.504 12.9766 102.629 13.3594C102.762 13.7422 102.949 14.0703 103.191 14.3438C103.441 14.6094 103.738 14.8164 104.082 14.9648C104.434 15.1133 104.832 15.1875 105.277 15.1875C105.816 15.1875 106.348 15.0859 106.871 14.8828C107.395 14.6797 107.844 14.3438 108.219 13.875L110.012 16.0078C109.754 16.375 109.387 16.7305 108.91 17.0742C108.441 17.418 107.879 17.6992 107.223 17.918C106.566 18.1289 105.832 18.2344 105.02 18.2344ZM115.941 8.46094V18H111.992V5.32031H115.684L115.941 8.46094ZM119.691 5.22656L119.621 8.89453C119.465 8.87891 119.254 8.85938 118.988 8.83594C118.723 8.8125 118.5 8.80078 118.32 8.80078C117.859 8.80078 117.461 8.85547 117.125 8.96484C116.797 9.06641 116.523 9.22266 116.305 9.43359C116.094 9.63672 115.938 9.89453 115.836 10.207C115.742 10.5195 115.699 10.8828 115.707 11.2969L114.992 10.8281C114.992 9.97656 115.074 9.20312 115.238 8.50781C115.41 7.80469 115.652 7.19922 115.965 6.69141C116.277 6.17578 116.656 5.78125 117.102 5.50781C117.547 5.22656 118.047 5.08594 118.602 5.08594C118.797 5.08594 118.988 5.09766 119.176 5.12109C119.371 5.14453 119.543 5.17969 119.691 5.22656ZM127.695 14.4375C127.695 14.2188 127.621 14.0312 127.473 13.875C127.332 13.7109 127.082 13.5625 126.723 13.4297C126.363 13.2891 125.859 13.1484 125.211 13.0078C124.594 12.875 124.012 12.6992 123.465 12.4805C122.926 12.2617 122.453 11.9961 122.047 11.6836C121.641 11.3711 121.32 11 121.086 10.5703C120.859 10.1406 120.746 9.64844 120.746 9.09375C120.746 8.55469 120.859 8.04688 121.086 7.57031C121.32 7.08594 121.66 6.66016 122.105 6.29297C122.559 5.91797 123.109 5.625 123.758 5.41406C124.406 5.19531 125.145 5.08594 125.973 5.08594C127.113 5.08594 128.098 5.26172 128.926 5.61328C129.754 5.95703 130.391 6.44141 130.836 7.06641C131.289 7.68359 131.516 8.39844 131.516 9.21094H127.566C127.566 8.89062 127.512 8.61719 127.402 8.39062C127.301 8.16406 127.133 7.99219 126.898 7.875C126.664 7.75 126.352 7.6875 125.961 7.6875C125.688 7.6875 125.438 7.73828 125.211 7.83984C124.992 7.94141 124.816 8.08203 124.684 8.26172C124.551 8.44141 124.484 8.65234 124.484 8.89453C124.484 9.06641 124.523 9.22266 124.602 9.36328C124.688 9.49609 124.816 9.62109 124.988 9.73828C125.16 9.84766 125.379 9.94922 125.645 10.043C125.91 10.1289 126.23 10.207 126.605 10.2773C127.457 10.4336 128.254 10.6562 128.996 10.9453C129.738 11.2344 130.34 11.6445 130.801 12.1758C131.27 12.707 131.504 13.4219 131.504 14.3203C131.504 14.8828 131.375 15.4023 131.117 15.8789C130.859 16.3477 130.488 16.7617 130.004 17.1211C129.52 17.4727 128.938 17.7461 128.258 17.9414C127.578 18.1367 126.812 18.2344 125.961 18.2344C124.75 18.2344 123.727 18.0195 122.891 17.5898C122.055 17.1523 121.422 16.6055 120.992 15.9492C120.57 15.2852 120.359 14.6133 120.359 13.9336H124.039C124.055 14.3242 124.148 14.6445 124.32 14.8945C124.5 15.1445 124.738 15.3281 125.035 15.4453C125.332 15.5625 125.676 15.6211 126.066 15.6211C126.426 15.6211 126.723 15.5703 126.957 15.4688C127.199 15.3672 127.383 15.2305 127.508 15.0586C127.633 14.8789 127.695 14.6719 127.695 14.4375Z" fill="#E84242"/>
</svg>
